<?xml version="1.0" encoding="UTF-8"?>
<!DOCTYPE svg PUBLIC "-//W3C//DTD SVG 1.1//EN" "http://www.w3.org/Graphics/SVG/1.1/DTD/svg11.dtd">
<svg xmlns="http://www.w3.org/2000/svg" xmlns:xlink="http://www.w3.org/1999/xlink" version="1.1" width="45px" height="45px" viewBox="-0.5 -0.5 45 45"><defs/><g><g><rect x="0" y="0" width="45" height="45" fill="none" stroke="none" pointer-events="all"/><path d="M 27.13 23.37 C 27.51 22.99 27.76 22.05 27.03 21.31 L 13.88 8.84 C 12.97 8.1 11.62 7.95 10.53 8.91 C 9.45 10.03 9.76 11.6 10.56 12.37 L 21.04 22.31 L 10.68 31.47 C 9.82 32.27 9.46 33.56 10.14 34.7 C 11.05 36.16 12.84 36.07 13.82 35.23 Z M 34.15 35.92 C 34.97 35.92 35.98 35.24 35.98 34.03 C 35.98 33.03 35.22 32.15 34.13 32.15 L 23.66 32.15 C 22.99 32.15 21.86 32.74 21.86 33.99 C 21.86 35.13 22.74 35.92 23.69 35.92 Z M 2.88 45 C 1.4 45 0 43.74 0 42.13 L 0 2.82 C 0 1.19 1.53 0 2.79 0 L 42.05 0 C 43.64 0 45 1.26 45 2.91 L 45 42.11 C 45 43.9 43.5 45 42.21 45 Z" fill="#e6e6e6" stroke="none" pointer-events="all"/></g></g></svg>