<?xml version="1.0" encoding="UTF-8"?>
<!DOCTYPE svg PUBLIC "-//W3C//DTD SVG 1.1//EN" "http://www.w3.org/Graphics/SVG/1.1/DTD/svg11.dtd">
<svg xmlns="http://www.w3.org/2000/svg" xmlns:xlink="http://www.w3.org/1999/xlink" version="1.1" width="50px" height="49px" viewBox="-0.5 -0.5 50 49"><defs/><g><g><rect x="0" y="0" width="50" height="49" fill="none" stroke="none" pointer-events="all"/><path d="M 9.69 18.18 C 9.69 17.05 10.67 15.59 12.32 15.59 C 13.77 15.59 14.92 16.82 14.92 18.18 C 14.92 19.71 13.64 20.79 12.32 20.79 C 11.01 20.79 9.69 19.72 9.69 18.18 Z M 18.65 19.32 L 18.65 17.09 L 40.29 17.09 L 40.29 19.32 Z M 9.69 27.08 C 9.69 25.96 10.67 24.5 12.32 24.5 C 13.77 24.5 14.92 25.73 14.92 27.08 C 14.92 28.62 13.64 29.7 12.32 29.7 C 11.01 29.7 9.69 28.63 9.69 27.08 Z M 12.32 28.96 C 13.2 28.96 14.16 28.31 14.16 27.08 C 14.16 26.08 13.33 25.25 12.32 25.25 C 11.22 25.25 10.44 26.1 10.44 27.08 C 10.44 28.24 11.34 28.96 12.32 28.96 Z M 18.65 28.23 L 18.65 26 L 40.29 26 L 40.29 28.23 Z M 45.52 4.46 L 47.76 4.46 L 47.76 2.23 L 45.52 2.23 Z M 41.04 4.46 L 43.28 4.46 L 43.28 2.23 L 41.04 2.23 Z M 36.57 4.46 L 38.81 4.46 L 38.81 2.23 L 36.57 2.23 Z M 9.69 35.99 C 9.69 34.86 10.67 33.42 12.32 33.42 C 13.77 33.42 14.92 34.64 14.92 35.99 C 14.92 37.52 13.64 38.6 12.32 38.6 C 11.01 38.6 9.69 37.54 9.69 35.99 Z M 12.32 37.87 C 13.2 37.87 14.16 37.22 14.16 35.99 C 14.16 34.98 13.33 34.16 12.32 34.16 C 11.22 34.16 10.44 35.01 10.44 35.99 C 10.44 37.15 11.34 37.87 12.32 37.87 Z M 18.65 37.13 L 18.65 34.91 L 40.29 34.91 L 40.29 37.13 Z M 47.03 46.78 C 47.51 46.78 47.76 46.42 47.76 46.06 L 47.76 7.43 L 2.24 7.43 L 2.24 46.06 C 2.24 46.5 2.57 46.78 2.94 46.78 Z M 2.91 49 C 1.46 49 0 47.73 0 46.14 L 0 2.94 C 0.02 1.17 1.55 0 2.9 0 L 47.06 0 C 48.63 0 50 1.34 50 2.9 L 50 46.07 C 50 47.81 48.46 49 47.1 49 Z" fill="#e6e6e6" stroke="none" pointer-events="all"/></g></g></svg>