<?xml version="1.0" encoding="UTF-8"?>
<!DOCTYPE svg PUBLIC "-//W3C//DTD SVG 1.1//EN" "http://www.w3.org/Graphics/SVG/1.1/DTD/svg11.dtd">
<svg xmlns="http://www.w3.org/2000/svg" xmlns:xlink="http://www.w3.org/1999/xlink" version="1.1" width="56px" height="43px" viewBox="-0.5 -0.5 56 43"><defs><style type="text/css">@import url(https://fonts.googleapis.com/css2?family=Architects+Daughter:wght@400;500);&#xa;</style></defs><g><g><rect x="0" y="0" width="56" height="43" fill="none" stroke="none" pointer-events="all"/><path d="M 1.5 43 L 11.91 19.05 C 12.6 17.67 14.33 16.63 15.75 16.6 L 53.22 16.6 C 54.48 16.65 56 18 55.01 20.19 L 45.64 43 Z M 0 40.74 L 0 9.01 C 0 7.23 1.59 6.04 2.88 6.04 L 26.26 6.04 L 29.56 1.52 C 30.03 0.92 31.05 0.03 32.24 0 L 46.41 0 C 47.94 0 49.39 1.31 49.39 2.96 L 49.39 14.33 L 15.82 14.33 C 13.65 14.33 11.19 15.75 10.05 17.83 Z" fill="#e6e6e6" stroke="none" pointer-events="all"/></g></g></svg>