<?xml version="1.0" encoding="UTF-8"?>
<!DOCTYPE svg PUBLIC "-//W3C//DTD SVG 1.1//EN" "http://www.w3.org/Graphics/SVG/1.1/DTD/svg11.dtd">
<svg xmlns="http://www.w3.org/2000/svg" xmlns:xlink="http://www.w3.org/1999/xlink" version="1.1" width="48px" height="48px" viewBox="-0.5 -0.5 48 48"><defs/><g><g><rect x="0" y="0" width="47.24" height="47.24" fill="none" stroke="none" pointer-events="all"/><path d="M 23.82 27.54 C 20.83 27.54 19.72 25.14 19.72 23.64 C 19.72 20.95 21.87 19.62 23.81 19.62 C 25.4 19.62 27.61 21 27.61 23.64 C 27.61 25.36 26.16 27.54 23.82 27.54 Z M 23.82 34.21 C 29.44 34.21 34.16 29.46 34.16 23.64 C 34.16 16.91 28.61 12.97 23.82 12.97 C 17.81 12.97 13.06 17.65 13.06 23.64 C 13.06 29.57 17.73 34.21 23.82 34.21 Z M 2.07 33.84 L 0 26.14 L 6.27 23.62 C 6.25 22.4 6.45 20.79 6.79 19.4 L 1.32 15.47 L 5.17 8.66 L 11.22 11.26 C 12.26 10.22 13.39 9.28 14.68 8.51 L 13.73 1.99 L 21.41 0 L 23.77 6.14 C 25.22 6.14 26.66 6.26 28.05 6.67 L 31.89 1.39 L 38.68 5.25 L 36.09 11.17 C 37.13 12.3 38.07 13.48 38.83 14.73 L 45.17 13.78 L 47.24 21.4 L 41.26 23.77 C 41.25 25.26 41.07 26.72 40.67 28.14 L 45.76 31.91 L 41.93 38.73 L 36.02 36.14 C 35 37.27 33.85 38.03 32.69 38.73 L 33.73 45.17 L 26.05 47.24 L 23.62 41.18 C 22.14 41.2 20.62 41.02 19.26 40.65 L 15.42 45.99 L 8.63 42.13 L 11.22 36.05 C 10.26 35.06 9.39 33.99 8.64 32.73 Z" fill="#e6e6e6" stroke="none" pointer-events="all"/></g></g></svg>