999
dxfrw 0.6.3
  0
SECTION
  2
HEADER
  9
$ACADVER
  1
AC1018
  9
$DWGCODEPAGE
  3
ANSI_1252
  9
$INSBASE
 10
0
 20
0
 30
0
  9
$EXTMIN
 10
1e+20
 20
1e+20
 30
1e+20
  9
$EXTMAX
 10
-1e+20
 20
-1e+20
 30
-1e+20
  9
$LIMMIN
 10
0
 20
0
  9
$LIMMAX
 10
420
 20
297
  9
$ORTHOMODE
 70
    0
  9
$REGENMODE
 70
    1
  9
$FILLMODE
 70
    1
  9
$QTEXTMODE
 70
    0
  9
$MIRRTEXT
 70
    0
  9
$LTSCALE
 40
1
  9
$ATTMODE
 70
    0
  9
$TEXTSIZE
 40
2.5
  9
$TRACEWID
 40
15.68
  9
$TEXTSTYLE
  7
STANDARD
  9
$CLAYER
  8
0
  9
$CELTYPE
  6
BYLAYER
  9
$CECOLOR
 62
  256
  9
$CELTSCALE
 40
1
  9
$DISPSILH
 70
    0
  9
$DIMSCALE
 40
2.5
  9
$DIMASZ
 40
2.5
  9
$DIMEXO
 40
0.625
  9
$DIMDLI
 40
3.75
  9
$DIMRND
 40
0
  9
$DIMDLE
 40
0
  9
$DIMEXE
 40
1.25
  9
$DIMTP
 40
0
  9
$DIMTM
 40
0
  9
$DIMTXT
 40
2.5
  9
$DIMCEN
 40
2.5
  9
$DIMTSZ
 40
0
  9
$DIMTOL
 70
    0
  9
$DIMLIM
 70
    0
  9
$DIMTIH
 70
    0
  9
$DIMTOH
 70
    0
  9
$DIMSE1
 70
    0
  9
$DIMSE2
 70
    0
  9
$DIMTAD
 70
    1
  9
$DIMZIN
 70
    8
  9
$DIMBLK
  1

  9
$DIMASO
 70
    1
  9
$DIMSHO
 70
    1
  9
$DIMPOST
  1

  9
$DIMAPOST
  1

  9
$DIMALT
 70
    0
  9
$DIMALTD
 70
    3
  9
$DIMALTF
 40
0.03937
  9
$DIMLFAC
 40
1
  9
$DIMTOFL
 70
    1
  9
$DIMTVP
 40
0
  9
$DIMTIX
 70
    0
  9
$DIMSOXD
 70
    0
  9
$DIMSAH
 70
    0
  9
$DIMBLK1
  1

  9
$DIMBLK2
  1

  9
$DIMSTYLE
  2
STANDARD
  9
$DIMCLRD
 70
    0
  9
$DIMCLRE
 70
    0
  9
$DIMCLRT
 70
    0
  9
$DIMTFAC
 40
1
  9
$DIMGAP
 40
0.625
  9
$DIMJUST
 70
    0
  9
$DIMSD1
 70
    0
  9
$DIMSD2
 70
    0
  9
$DIMTOLJ
 70
    0
  9
$DIMTZIN
 70
    8
  9
$DIMALTZ
 70
    0
  9
$DIMALTTZ
 70
    0
  9
$DIMUPT
 70
    0
  9
$DIMDEC
 70
    2
  9
$DIMTDEC
 70
    2
  9
$DIMALTU
 70
    2
  9
$DIMALTTD
 70
    3
  9
$DIMTXSTY
  7
STANDARD
  9
$DIMAUNIT
 70
    0
  9
$DIMADEC
 70
    0
  9
$DIMALTRND
 40
0
  9
$DIMAZIN
 70
    0
  9
$DIMDSEP
 70
   44
  9
$DIMATFIT
 70
    3
  9
$DIMFRAC
 70
    0
  9
$DIMLDRBLK
  1
STANDARD
  9
$DIMLUNIT
 70
    2
  9
$DIMLWD
 70
   -2
  9
$DIMLWE
 70
   -2
  9
$DIMTMOVE
 70
    0
  9
$LUNITS
 70
    2
  9
$LUPREC
 70
    4
  9
$SKETCHINC
 40
1
  9
$FILLETRAD
 40
0
  9
$AUNITS
 70
    0
  9
$AUPREC
 70
    2
  9
$MENU
  1
.
  9
$ELEVATION
 40
0
  9
$PELEVATION
 40
0
  9
$THICKNESS
 40
0
  9
$LIMCHECK
 70
    0
  9
$CHAMFERA
 40
0
  9
$CHAMFERB
 40
0
  9
$CHAMFERC
 40
0
  9
$CHAMFERD
 40
0
  9
$SKPOLY
 70
    0
  9
$USRTIMER
 70
    1
  9
$ANGBASE
 50
0
  9
$ANGDIR
 70
    0
  9
$PDMODE
 70
   34
  9
$PDSIZE
 40
0
  9
$PLINEWID
 40
0
  9
$SPLFRAME
 70
    0
  9
$SPLINETYPE
 70
    2
  9
$SPLINESEGS
 70
    8
  9
$HANDSEED
  5
20000
  9
$SURFTAB1
 70
    6
  9
$SURFTAB2
 70
    6
  9
$SURFTYPE
 70
    6
  9
$SURFU
 70
    6
  9
$SURFV
 70
    6
  9
$UCSBASE
  2

  9
$UCSNAME
  2

  9
$UCSORG
 10
0
 20
0
 30
0
  9
$UCSXDIR
 10
1
 20
0
 30
0
  9
$UCSYDIR
 10
0
 20
1
 30
0
  9
$UCSORTHOREF
  2

  9
$UCSORTHOVIEW
 70
    0
  9
$UCSORGTOP
 10
0
 20
0
 30
0
  9
$UCSORGBOTTOM
 10
0
 20
0
 30
0
  9
$UCSORGLEFT
 10
0
 20
0
 30
0
  9
$UCSORGRIGHT
 10
0
 20
0
 30
0
  9
$UCSORGFRONT
 10
0
 20
0
 30
0
  9
$UCSORGBACK
 10
0
 20
0
 30
0
  9
$PUCSBASE
  2

  9
$PUCSNAME
  2

  9
$PUCSORG
 10
0
 20
0
 30
0
  9
$PUCSXDIR
 10
1
 20
0
 30
0
  9
$PUCSYDIR
 10
0
 20
1
 30
0
  9
$PUCSORTHOREF
  2

  9
$PUCSORTHOVIEW
 70
    0
  9
$PUCSORGTOP
 10
0
 20
0
 30
0
  9
$PUCSORGBOTTOM
 10
0
 20
0
 30
0
  9
$PUCSORGLEFT
 10
0
 20
0
 30
0
  9
$PUCSORGRIGHT
 10
0
 20
0
 30
0
  9
$PUCSORGFRONT
 10
0
 20
0
 30
0
  9
$PUCSORGBACK
 10
0
 20
0
 30
0
  9
$USERI1
 70
    0
  9
$USERI2
 70
    0
  9
$USERI3
 70
    0
  9
$USERI4
 70
    0
  9
$USERI5
 70
    0
  9
$USERR1
 40
0
  9
$USERR2
 40
0
  9
$USERR3
 40
0
  9
$USERR4
 40
0
  9
$USERR5
 40
0
  9
$WORLDVIEW
 70
    1
  9
$SHADEDGE
 70
    3
  9
$SHADEDIF
 70
   70
  9
$TILEMODE
 70
    1
  9
$MAXACTVP
 70
   64
  9
$PINSBASE
 10
0
 20
0
 30
0
  9
$PLIMCHECK
 70
    0
  9
$PEXTMIN
 10
0
 20
0
 30
0
  9
$PEXTMAX
 10
0
 20
0
 30
0
  9
$PLIMMIN
 10
0
 20
0
  9
$PLIMMAX
 10
297
 20
210
  9
$UNITMODE
 70
    0
  9
$VISRETAIN
 70
    1
  9
$PLINEGEN
 70
    0
  9
$PSLTSCALE
 70
    1
  9
$TREEDEPTH
 70
 3020
  9
$CMLSTYLE
  2
Standard
  9
$CMLJUST
 70
    0
  9
$CMLSCALE
 40
20
  9
$PROXYGRAPHICS
 70
    1
  9
$MEASUREMENT
 70
    1
  9
$CELWEIGHT
370
   -1
  9
$ENDCAPS
280
    0
  9
$JOINSTYLE
280
    0
  9
$LWDISPLAY
290
    0
  9
$INSUNITS
 70
    0
  9
$HYPERLINKBASE
  1

  9
$STYLESHEET
  1

  9
$XEDIT
290
    1
  9
$CEPSNTYPE
380
    0
  9
$PSTYLEMODE
290
    1
  9
$EXTNAMES
290
    1
  9
$PSVPSCALE
 40
0
  9
$OLESTARTUP
290
    0
  9
$SORTENTS
280
  127
  9
$INDEXCTL
280
    0
  9
$HIDETEXT
280
    1
  9
$XCLIPFRAME
290
    0
  9
$HALOGAP
280
    0
  9
$OBSCOLOR
 70
  257
  9
$OBSLTYPE
280
    0
  9
$INTERSECTIONDISPLAY
280
    0
  9
$INTERSECTIONCOLOR
 70
  257
  9
$DIMASSOC
280
    1
  9
$PROJECTNAME
  1

  0
ENDSEC
  0
SECTION
  2
CLASSES
  0
ENDSEC
  0
SECTION
  2
TABLES
  0
TABLE
  2
VPORT
  5
8
330
0
100
AcDbSymbolTable
 70
    1
  0
VPORT
  5
31
330
2
100
AcDbSymbolTableRecord
100
AcDbViewportTableRecord
  2
*ACTIVE
 70
    0
 10
0
 20
0
 11
1
 21
1
 12
0.651828
 22
-0.16
 13
0
 23
0
 14
10
 24
10
 15
10
 25
10
 16
0
 26
0
 36
1
 17
0
 27
0
 37
0
 40
5.13732
 41
2.4426877
 42
50
 43
0
 44
0
 50
0
 51
0
 71
    0
 72
  100
 73
    1
 74
    3
 75
    0
 76
    0
 77
    0
 78
    0
281
    0
 65
    1
110
0
120
0
130
0
111
1
121
0
131
0
112
0
122
1
132
0
 79
    0
146
0
  0
ENDTAB
  0
TABLE
  2
LTYPE
  5
5
330
0
100
AcDbSymbolTable
 70
    4
  0
LTYPE
  5
14
330
5
100
AcDbSymbolTableRecord
100
AcDbLinetypeTableRecord
  2
ByBlock
 70
    0
  3

 72
   65
 73
    0
 40
0
  0
LTYPE
  5
15
330
5
100
AcDbSymbolTableRecord
100
AcDbLinetypeTableRecord
  2
ByLayer
 70
    0
  3

 72
   65
 73
    0
 40
0
  0
LTYPE
  5
16
330
5
100
AcDbSymbolTableRecord
100
AcDbLinetypeTableRecord
  2
Continuous
 70
    0
  3
Solid line
 72
   65
 73
    0
 40
0
  0
ENDTAB
  0
TABLE
  2
LAYER
  5
2
330
0
100
AcDbSymbolTable
 70
    1
  0
LAYER
  5
10
330
2
100
AcDbSymbolTableRecord
100
AcDbLayerTableRecord
  2
0
 70
    0
 62
    7
  6
CONTINUOUS
370
   -3
390
F
  0
ENDTAB
  0
TABLE
  2
STYLE
  5
3
330
0
100
AcDbSymbolTable
 70
    3
  0
STYLE
  5
32
330
2
100
AcDbSymbolTableRecord
100
AcDbTextStyleTableRecord
  2
Standard
 70
    0
 40
0
 41
1
 50
0
 71
    0
 42
1
  3
txt
  4

  0
ENDTAB
  0
TABLE
  2
VIEW
  5
6
330
0
100
AcDbSymbolTable
 70
    0
  0
ENDTAB
  0
TABLE
  2
UCS
  5
7
330
0
100
AcDbSymbolTable
 70
    0
  0
ENDTAB
  0
TABLE
  2
APPID
  5
9
330
0
100
AcDbSymbolTable
 70
    1
  0
APPID
  5
12
330
9
100
AcDbSymbolTableRecord
100
AcDbRegAppTableRecord
  2
ACAD
 70
    0
  0
ENDTAB
  0
TABLE
  2
DIMSTYLE
  5
A
330
0
100
AcDbSymbolTable
 70
    1
100
AcDbDimStyleTable
 71
    1
  0
DIMSTYLE
105
33
330
A
100
AcDbSymbolTableRecord
100
AcDbDimStyleTableRecord
  2
Standard
 70
    0
 40
1
 41
0.18
 42
0.0625
 43
0.38
 44
0.18
 45
0
 46
0
 47
0
 48
0
 49
1
140
0.18
141
0.09
142
0
143
25.4
144
1
145
0
146
1
147
0.09
148
0
 71
    0
 72
    0
 73
    0
 74
    1
 75
    0
 76
    0
 77
    0
 78
    0
 79
    0
170
    0
171
    2
172
    0
173
    0
174
    0
175
    0
176
    0
177
    0
178
    0
179
    0
271
    4
272
    4
273
    2
274
    2
275
    0
276
    0
277
    2
278
   46
279
    0
280
    0
281
    0
282
    0
283
    1
284
    0
285
    0
286
    0
288
    0
289
    3
340
Standard
341

371
   -2
372
   -2
  0
ENDTAB
  0
TABLE
  2
BLOCK_RECORD
  5
1
330
0
100
AcDbSymbolTable
 70
    2
  0
BLOCK_RECORD
  5
1F
330
1
100
AcDbSymbolTableRecord
100
AcDbBlockTableRecord
  2
*Model_Space
  0
BLOCK_RECORD
  5
1E
330
1
100
AcDbSymbolTableRecord
100
AcDbBlockTableRecord
  2
*Paper_Space
  0
ENDTAB
  0
ENDSEC
  0
SECTION
  2
BLOCKS
  0
BLOCK
  5
20
330
1F
100
AcDbEntity
  8
0
100
AcDbBlockBegin
  2
*Model_Space
 70
    0
 10
0
 20
0
 30
0
  3
*Model_Space
  1

  0
ENDBLK
  5
21
330
1F
100
AcDbEntity
  8
0
100
AcDbBlockEnd
  0
BLOCK
  5
1C
330
1B
100
AcDbEntity
  8
0
100
AcDbBlockBegin
  2
*Paper_Space
 70
    0
 10
0
 20
0
 30
0
  3
*Paper_Space
  1

  0
ENDBLK
  5
1D
330
1F
100
AcDbEntity
  8
0
100
AcDbBlockEnd
  0
ENDSEC
  0
SECTION
  2
ENTITIES
  0
LWPOLYLINE
  5
34
100
AcDbEntity
  8
0
  6
CONTINUOUS
 62
  256
370
   -1
100
AcDbPolyline
 90
    4
 70
    0
 43
0
 10
263.1818181818182
 20
332.3636363636364
 10
263.1818181818182
 20
331.9090909090909
 10
262.2727272727273
 20
329.4545454545454
 10
262.2727272727273
 20
329.4545454545454
  0
LWPOLYLINE
  5
35
100
AcDbEntity
  8
0
  6
CONTINUOUS
 62
  256
370
   -1
100
AcDbPolyline
 90
    8
 70
    0
 43
0
 10
260.6363636363636
 20
330.5454545454546
 10
260.9090909090909
 20
329.4545454545454
 10
261.1818181818182
 20
321.1818181818182
 10
261
 20
321.9090909090909
 10
265.5454545454546
 20
322.2727272727273
 10
265.1818181818182
 20
322.3636363636364
 10
264.9090909090909
 20
322.2727272727273
 10
264.9090909090909
 20
322.2727272727273
  0
LWPOLYLINE
  5
36
100
AcDbEntity
  8
0
  6
CONTINUOUS
 62
  256
370
   -1
100
AcDbPolyline
 90
    8
 70
    0
 43
0
 10
261.0909090909091
 20
329.3636363636364
 10
266.6363636363636
 20
329.9090909090909
 10
266.4545454545454
 20
330.3636363636364
 10
266.2727272727273
 20
325.2727272727273
 10
266.2727272727273
 20
325
 10
266.1818181818182
 20
321.3636363636364
 10
265.6363636363636
 20
322.1818181818182
 10
265.6363636363636
 20
322.1818181818182
  0
LWPOLYLINE
  5
37
100
AcDbEntity
  8
0
  6
CONTINUOUS
 62
  256
370
   -1
100
AcDbPolyline
 90
    6
 70
    0
 43
0
 10
261.1818181818182
 20
324.5454545454546
 10
261.4545454545454
 20
324.5454545454546
 10
264.9090909090909
 20
324.9090909090909
 10
264.6363636363636
 20
325
 10
263.9090909090909
 20
324.7272727272727
 10
263.9090909090909
 20
324.7272727272727
  0
LWPOLYLINE
  5
38
100
AcDbEntity
  8
0
  6
CONTINUOUS
 62
  256
370
   -1
100
AcDbPolyline
 90
    7
 70
    0
 43
0
 10
261.1818181818182
 20
326.9090909090909
 10
261.2727272727273
 20
326.9090909090909
 10
264.8181818181818
 20
327.2727272727273
 10
264.3636363636364
 20
327.3636363636364
 10
264.2727272727273
 20
327.3636363636364
 10
263.9090909090909
 20
327.2727272727273
 10
263.9090909090909
 20
327.2727272727273
  0
LWPOLYLINE
  5
39
100
AcDbEntity
  8
0
  6
CONTINUOUS
 62
  256
370
   -1
100
AcDbPolyline
 90
    5
 70
    0
 43
0
 10
270.2727272727273
 20
331.4545454545454
 10
270.3636363636364
 20
330.9090909090909
 10
269.6363636363636
 20
329
 10
269.2727272727273
 20
328.4545454545454
 10
269.2727272727273
 20
328.4545454545454
  0
LWPOLYLINE
  5
3A
100
AcDbEntity
  8
0
  6
CONTINUOUS
 62
  256
370
   -1
100
AcDbPolyline
 90
    3
 70
    0
 43
0
 10
270.2727272727273
 20
329.8181818181818
 10
273.7272727272727
 20
330.0909090909091
 10
273.7272727272727
 20
330.0909090909091
  0
LWPOLYLINE
  5
3B
100
AcDbEntity
  8
0
  6
CONTINUOUS
 62
  256
370
   -1
100
AcDbPolyline
 90
    6
 70
    0
 43
0
 10
268.4545454545454
 20
327.7272727272727
 10
274.4545454545454
 20
328.2727272727273
 10
274.3636363636364
 20
328.2727272727273
 10
274
 20
328.3636363636364
 10
273.5454545454546
 20
328.1818181818182
 10
273.5454545454546
 20
328.1818181818182
  0
LWPOLYLINE
  5
3C
100
AcDbEntity
  8
0
  6
CONTINUOUS
 62
  256
370
   -1
100
AcDbPolyline
 90
    6
 70
    0
 43
0
 10
271.7272727272727
 20
332.4545454545454
 10
271.8181818181818
 20
332
 10
271.7272727272727
 20
321.1818181818182
 10
271.5454545454546
 20
321.8181818181818
 10
271.7272727272727
 20
322.4545454545454
 10
271.7272727272727
 20
322.4545454545454
  0
LWPOLYLINE
  5
3D
100
AcDbEntity
  8
0
  6
CONTINUOUS
 62
  256
370
   -1
100
AcDbPolyline
 90
    7
 70
    0
 43
0
 10
269.7272727272727
 20
326.8181818181818
 10
269.9090909090909
 20
325.8181818181818
 10
269.9090909090909
 20
325.6363636363636
 10
270
 20
322.9090909090909
 10
269.9090909090909
 20
323.4545454545454
 10
270
 20
323.9090909090909
 10
270
 20
323.9090909090909
  0
LWPOLYLINE
  5
3E
100
AcDbEntity
  8
0
  6
CONTINUOUS
 62
  256
370
   -1
100
AcDbPolyline
 90
   11
 70
    0
 43
0
 10
270
 20
326
 10
274.1818181818182
 20
326.5454545454546
 10
273.9090909090909
 20
326.8181818181818
 10
273.7272727272727
 20
326.0909090909091
 10
273.6363636363636
 20
324.9090909090909
 10
273.4545454545454
 20
324.0909090909091
 10
273.3636363636364
 20
323.5454545454546
 10
273.0909090909091
 20
323.2727272727273
 10
272.2727272727273
 20
324.1818181818182
 10
273.1818181818182
 20
323.3636363636364
 10
273.1818181818182
 20
323.3636363636364
  0
LWPOLYLINE
  5
3F
100
AcDbEntity
  8
0
  6
CONTINUOUS
 62
  256
370
   -1
100
AcDbPolyline
 90
    6
 70
    0
 43
0
 10
275
 20
330.0909090909091
 10
275.1818181818182
 20
329.6363636363636
 10
275.1818181818182
 20
324.6363636363636
 10
275
 20
325.5454545454546
 10
275.0909090909091
 20
326.0909090909091
 10
275.0909090909091
 20
326.0909090909091
  0
LWPOLYLINE
  5
40
100
AcDbEntity
  8
0
  6
CONTINUOUS
 62
  256
370
   -1
100
AcDbPolyline
 90
   10
 70
    0
 43
0
 10
276.6363636363636
 20
332.2727272727273
 10
276.8181818181818
 20
331.7272727272727
 10
276.7272727272727
 20
323
 10
276.7272727272727
 20
322.4545454545454
 10
276.6363636363636
 20
322
 10
276.5454545454546
 20
321.8181818181818
 10
276.3636363636364
 20
321.6363636363636
 10
275.0909090909091
 20
323
 10
276.5454545454546
 20
321.8181818181818
 10
276.5454545454546
 20
321.8181818181818
  0
LWPOLYLINE
  5
41
100
AcDbEntity
  8
0
  6
CONTINUOUS
 62
  256
370
   -1
100
AcDbPolyline
 90
   12
 70
    0
 43
0
 10
280.0909090909091
 20
332
 10
279.9090909090909
 20
331.0909090909091
 10
278.8181818181818
 20
328.9090909090909
 10
278.1818181818182
 20
327.4545454545454
 10
278
 20
327.6363636363636
 10
280.2727272727273
 20
328.0909090909091
 10
281
 20
329.3636363636364
 10
279.0909090909091
 20
326.2727272727273
 10
278.1818181818182
 20
324.9090909090909
 10
278
 20
324.9090909090909
 10
280.7272727272727
 20
325.8181818181818
 10
280.7272727272727
 20
325.8181818181818
  0
LWPOLYLINE
  5
42
100
AcDbEntity
  8
0
  6
CONTINUOUS
 62
  256
370
   -1
100
AcDbPolyline
 90
    3
 70
    0
 43
0
 10
277.7272727272727
 20
322.3636363636364
 10
281.0909090909091
 20
323.9090909090909
 10
281.0909090909091
 20
323.9090909090909
  0
LWPOLYLINE
  5
43
100
AcDbEntity
  8
0
  6
CONTINUOUS
 62
  256
370
   -1
100
AcDbPolyline
 90
    7
 70
    0
 43
0
 10
283.7272727272727
 20
332
 10
283.4545454545454
 20
331
 10
282.8181818181818
 20
329.4545454545454
 10
281.8181818181818
 20
328
 10
281.0909090909091
 20
327.0909090909091
 10
280.5454545454546
 20
326.6363636363636
 10
280.5454545454546
 20
326.6363636363636
  0
LWPOLYLINE
  5
44
100
AcDbEntity
  8
0
  6
CONTINUOUS
 62
  256
370
   -1
100
AcDbPolyline
 90
    6
 70
    0
 43
0
 10
283.6363636363636
 20
331.2727272727273
 10
286.3636363636364
 20
327.4545454545454
 10
287.6363636363636
 20
327.4545454545454
 10
286.3636363636364
 20
327.6363636363636
 10
285.8181818181818
 20
328.1818181818182
 10
285.8181818181818
 20
328.1818181818182
  0
LWPOLYLINE
  5
45
100
AcDbEntity
  8
0
  6
CONTINUOUS
 62
  256
370
   -1
100
AcDbPolyline
 90
    3
 70
    0
 43
0
 10
285
 20
327.6363636363636
 10
282.0909090909091
 20
327.1818181818182
 10
282.0909090909091
 20
327.1818181818182
  0
LWPOLYLINE
  5
46
100
AcDbEntity
  8
0
  6
CONTINUOUS
 62
  256
370
   -1
100
AcDbPolyline
 90
    3
 70
    0
 43
0
 10
281.0909090909091
 20
325.1818181818182
 10
286.5454545454546
 20
326
 10
286.5454545454546
 20
326
  0
LWPOLYLINE
  5
47
100
AcDbEntity
  8
0
  6
CONTINUOUS
 62
  256
370
   -1
100
AcDbPolyline
 90
    5
 70
    0
 43
0
 10
283.4545454545454
 20
325.4545454545454
 10
281.4545454545454
 20
321.9090909090909
 10
281.2727272727273
 20
322
 10
285.2727272727273
 20
322.7272727272727
 10
285.2727272727273
 20
322.7272727272727
  0
LWPOLYLINE
  5
48
100
AcDbEntity
  8
0
  6
CONTINUOUS
 62
  256
370
   -1
100
AcDbPolyline
 90
    5
 70
    0
 43
0
 10
284.2727272727273
 20
324
 10
285.5454545454546
 20
322.5454545454546
 10
285.8181818181818
 20
322
 10
285.9090909090909
 20
321.6363636363636
 10
285.9090909090909
 20
321.6363636363636
  0
LWPOLYLINE
  5
49
100
AcDbEntity
  8
0
  6
CONTINUOUS
 62
  256
370
   -1
100
AcDbPolyline
 90
    8
 70
    0
 43
0
 10
289.7272727272727
 20
332.0909090909091
 10
289.9090909090909
 20
330.9090909090909
 10
290.0909090909091
 20
321.5454545454546
 10
290
 20
322.5454545454546
 10
296.4545454545454
 20
322.5454545454546
 10
296
 20
322.6363636363636
 10
295.0909090909091
 20
322.5454545454546
 10
295.0909090909091
 20
322.5454545454546
  0
LWPOLYLINE
  5
4A
100
AcDbEntity
  8
0
  6
CONTINUOUS
 62
  256
370
   -1
100
AcDbPolyline
 90
    8
 70
    0
 43
0
 10
290
 20
330.9090909090909
 10
297.6363636363636
 20
331.4545454545454
 10
297.3636363636364
 20
331.7272727272727
 10
297.1818181818182
 20
330.9090909090909
 10
297.0909090909091
 20
322.7272727272727
 10
297
 20
321.8181818181818
 10
296.3636363636364
 20
322.5454545454546
 10
296.3636363636364
 20
322.5454545454546
  0
LWPOLYLINE
  5
4B
100
AcDbEntity
  8
0
  6
CONTINUOUS
 62
  256
370
   -1
100
AcDbPolyline
 90
    6
 70
    0
 43
0
 10
293
 20
330.8181818181818
 10
293
 20
330.3636363636364
 10
292.1818181818182
 20
329
 10
291.1818181818182
 20
327.9090909090909
 10
290.7272727272727
 20
327.4545454545454
 10
290.7272727272727
 20
327.4545454545454
  0
LWPOLYLINE
  5
4C
100
AcDbEntity
  8
0
  6
CONTINUOUS
 62
  256
370
   -1
100
AcDbPolyline
 90
   10
 70
    0
 43
0
 10
292.5454545454546
 20
329.4545454545454
 10
292.9090909090909
 20
329.3636363636364
 10
295.4545454545454
 20
329.6363636363636
 10
295.1818181818182
 20
329.9090909090909
 10
294
 20
328.1818181818182
 10
293.0909090909091
 20
327.2727272727273
 10
292.2727272727273
 20
326.5454545454546
 10
291.4545454545454
 20
325.9090909090909
 10
290.5454545454546
 20
325.4545454545454
 10
290.5454545454546
 20
325.4545454545454
  0
LWPOLYLINE
  5
4D
100
AcDbEntity
  8
0
  6
CONTINUOUS
 62
  256
370
   -1
100
AcDbPolyline
 90
    7
 70
    0
 43
0
 10
292.3636363636364
 20
328.4545454545454
 10
292.6363636363636
 20
328.4545454545454
 10
295.4545454545454
 20
326.0909090909091
 10
296.4545454545454
 20
326.0909090909091
 10
295.4545454545454
 20
326.2727272727273
 10
295
 20
326.4545454545454
 10
295
 20
326.4545454545454
  0
LWPOLYLINE
  5
4E
100
AcDbEntity
  8
0
  6
CONTINUOUS
 62
  256
370
   -1
100
AcDbPolyline
 90
    4
 70
    0
 43
0
 10
292.8181818181818
 20
326.1818181818182
 10
293.8181818181818
 20
325.5454545454546
 10
294.2727272727273
 20
325.0909090909091
 10
294.2727272727273
 20
325.0909090909091
  0
LWPOLYLINE
  5
4F
100
AcDbEntity
  8
0
  6
CONTINUOUS
 62
  256
370
   -1
100
AcDbPolyline
 90
    4
 70
    0
 43
0
 10
292.4545454545454
 20
324.6363636363636
 10
293.6363636363636
 20
324
 10
294.1818181818182
 20
323.5454545454546
 10
294.1818181818182
 20
323.5454545454546
  0
LWPOLYLINE
  5
50
100
AcDbEntity
  8
0
  6
CONTINUOUS
 62
  256
370
   -1
100
AcDbPolyline
 90
    6
 70
    0
 43
0
 10
302.9090909090909
 20
332.1818181818182
 10
302.2727272727273
 20
331.6363636363636
 10
301.1818181818182
 20
331
 10
300.0909090909091
 20
330.5454545454546
 10
299.6363636363636
 20
330.3636363636364
 10
299.6363636363636
 20
330.3636363636364
  0
LWPOLYLINE
  5
51
100
AcDbEntity
  8
0
  6
CONTINUOUS
 62
  256
370
   -1
100
AcDbPolyline
 90
    5
 70
    0
 43
0
 10
301.8181818181818
 20
331.2727272727273
 10
301.6363636363636
 20
321.4545454545454
 10
301.4545454545454
 20
322.2727272727273
 10
301.6363636363636
 20
323.1818181818182
 10
301.6363636363636
 20
323.1818181818182
  0
LWPOLYLINE
  5
52
100
AcDbEntity
  8
0
  6
CONTINUOUS
 62
  256
370
   -1
100
AcDbPolyline
 90
    3
 70
    0
 43
0
 10
303.4545454545454
 20
329.2727272727273
 10
299.0909090909091
 20
328.3636363636364
 10
299.0909090909091
 20
328.3636363636364
  0
LWPOLYLINE
  5
53
100
AcDbEntity
  8
0
  6
CONTINUOUS
 62
  256
370
   -1
100
AcDbPolyline
 90
    5
 70
    0
 43
0
 10
301.5454545454546
 20
328.4545454545454
 10
300.5454545454546
 20
326.7272727272727
 10
299.6363636363636
 20
325.6363636363636
 10
298.8181818181818
 20
324.7272727272727
 10
298.8181818181818
 20
324.7272727272727
  0
LWPOLYLINE
  5
54
100
AcDbEntity
  8
0
  6
CONTINUOUS
 62
  256
370
   -1
100
AcDbPolyline
 90
    4
 70
    0
 43
0
 10
301.9090909090909
 20
328
 10
302.9090909090909
 20
327.2727272727273
 10
303.1818181818182
 20
327
 10
303.1818181818182
 20
327
  0
LWPOLYLINE
  5
55
100
AcDbEntity
  8
0
  6
CONTINUOUS
 62
  256
370
   -1
100
AcDbPolyline
 90
    5
 70
    0
 43
0
 10
304.2727272727273
 20
331.8181818181818
 10
304.3636363636364
 20
331
 10
304.4545454545454
 20
329.4545454545454
 10
304.4545454545454
 20
328.0909090909091
 10
304.4545454545454
 20
328.0909090909091
  0
LWPOLYLINE
  5
56
100
AcDbEntity
  8
0
  6
CONTINUOUS
 62
  256
370
   -1
100
AcDbPolyline
 90
    7
 70
    0
 43
0
 10
304.4545454545454
 20
328.5454545454546
 10
307.3636363636364
 20
329
 10
307
 20
328.9090909090909
 10
307.4545454545454
 20
331.6363636363636
 10
307.4545454545454
 20
331.3636363636364
 10
304.4545454545454
 20
330.9090909090909
 10
304.4545454545454
 20
330.9090909090909
  0
LWPOLYLINE
  5
57
100
AcDbEntity
  8
0
  6
CONTINUOUS
 62
  256
370
   -1
100
AcDbPolyline
 90
    3
 70
    0
 43
0
 10
303.8181818181818
 20
326.6363636363636
 10
307.7272727272727
 20
327.1818181818182
 10
307.7272727272727
 20
327.1818181818182
  0
LWPOLYLINE
  5
58
100
AcDbEntity
  8
0
  6
CONTINUOUS
 62
  256
370
   -1
100
AcDbPolyline
 90
    3
 70
    0
 43
0
 10
305.6363636363636
 20
326.8181818181818
 10
305.4545454545454
 20
322.6363636363636
 10
305.4545454545454
 20
322.6363636363636
  0
LWPOLYLINE
  5
59
100
AcDbEntity
  8
0
  6
CONTINUOUS
 62
  256
370
   -1
100
AcDbPolyline
 90
    3
 70
    0
 43
0
 10
307.3636363636364
 20
325.1818181818182
 10
304
 20
324.6363636363636
 10
304
 20
324.6363636363636
  0
LWPOLYLINE
  5
5A
100
AcDbEntity
  8
0
  6
CONTINUOUS
 62
  256
370
   -1
100
AcDbPolyline
 90
    5
 70
    0
 43
0
 10
302.6363636363636
 20
322.2727272727273
 10
308.6363636363636
 20
322.9090909090909
 10
308.2727272727273
 20
323
 10
307.2727272727273
 20
322.8181818181818
 10
307.2727272727273
 20
322.8181818181818
  0
LWPOLYLINE
  5
5B
100
AcDbEntity
  8
0
  6
CONTINUOUS
 62
  256
370
   -1
100
AcDbPolyline
 90
    5
 70
    0
 43
0
 10
314.7272727272727
 20
332.4545454545454
 10
315.3636363636364
 20
331.7272727272727
 10
315.6363636363636
 20
331.3636363636364
 10
315.7272727272727
 20
331
 10
315.7272727272727
 20
331
  0
LWPOLYLINE
  5
5C
100
AcDbEntity
  8
0
  6
CONTINUOUS
 62
  256
370
   -1
100
AcDbPolyline
 90
   12
 70
    0
 43
0
 10
311.9090909090909
 20
331
 10
312.0909090909091
 20
329.9090909090909
 10
312.0909090909091
 20
328.6363636363636
 10
312.0909090909091
 20
328.4545454545454
 10
312
 20
327.1818181818182
 10
311.8181818181818
 20
325.4545454545454
 10
311.5454545454546
 20
324.1818181818182
 10
311.1818181818182
 20
323.2727272727273
 10
310.8181818181818
 20
322.3636363636364
 10
310.4545454545454
 20
321.6363636363636
 10
310.1818181818182
 20
321.1818181818182
 10
310.1818181818182
 20
321.1818181818182
  0
LWPOLYLINE
  5
5D
100
AcDbEntity
  8
0
  6
CONTINUOUS
 62
  256
370
   -1
100
AcDbPolyline
 90
    5
 70
    0
 43
0
 10
312.1818181818182
 20
329.9090909090909
 10
319.1818181818182
 20
330.8181818181818
 10
318.8181818181818
 20
330.9090909090909
 10
318
 20
330.6363636363636
 10
318
 20
330.6363636363636
  0
LWPOLYLINE
  5
5E
100
AcDbEntity
  8
0
  6
CONTINUOUS
 62
  256
370
   -1
100
AcDbPolyline
 90
    7
 70
    0
 43
0
 10
313.4545454545454
 20
328.3636363636364
 10
317.6363636363636
 20
329.0909090909091
 10
317.6363636363636
 20
329.2727272727273
 10
315.6363636363636
 20
327.0909090909091
 10
315.9090909090909
 20
326.7272727272727
 10
315
 20
327.5454545454546
 10
315
 20
327.5454545454546
  0
LWPOLYLINE
  5
5F
100
AcDbEntity
  8
0
  6
CONTINUOUS
 62
  256
370
   -1
100
AcDbPolyline
 90
    5
 70
    0
 43
0
 10
312.6363636363636
 20
325.4545454545454
 10
319.2727272727273
 20
326.6363636363636
 10
319.1818181818182
 20
326.9090909090909
 10
318.4545454545454
 20
325
 10
318.4545454545454
 20
325
  0
LWPOLYLINE
  5
60
100
AcDbEntity
  8
0
  6
CONTINUOUS
 62
  256
370
   -1
100
AcDbPolyline
 90
    7
 70
    0
 43
0
 10
316
 20
326
 10
316.0909090909091
 20
322.6363636363636
 10
316.0909090909091
 20
321.6363636363636
 10
316
 20
321.1818181818182
 10
314.3636363636364
 20
322.4545454545454
 10
315.9090909090909
 20
321.3636363636364
 10
315.9090909090909
 20
321.3636363636364
  0
LWPOLYLINE
  5
61
100
AcDbEntity
  8
0
  6
CONTINUOUS
 62
  256
370
   -1
100
AcDbPolyline
 90
   39
 70
    0
 43
0
 10
320
 20
321
 10
323.6
 20
321
 10
323.835241136791
 20
321.0115566559867
 10
324.0682167728387
 20
321.0461153270322
 10
324.2966832254107
 20
321.1033431942427
 10
324.5184402376762
 20
321.1826891219729
 10
324.7313521683824
 20
321.283388965564
 10
324.9333685592471
 20
321.4044729304739
 10
325.1225438819927
 20
321.5447749119294
 10
325.2970562748477
 20
321.7029437251523
 10
325.4552250880706
 20
321.8774561180073
 10
325.5955270695261
 20
322.0666314407529
 10
325.716611034436
 20
322.2686478316176
 10
325.8173108780271
 20
322.4815597623238
 10
325.8966568057573
 20
322.7033167745893
 10
325.9538846729678
 20
322.9317832271613
 10
325.9884433440133
 20
323.164758863209
 10
326
 20
323.4
 10
326
 20
329.4
 10
325.9884433440133
 20
329.635241136791
 10
325.9538846729678
 20
329.8682167728387
 10
325.8966568057573
 20
330.0966832254107
 10
325.8173108780271
 20
330.3184402376762
 10
325.716611034436
 20
330.5313521683824
 10
325.5955270695261
 20
330.733368559247
 10
325.4552250880706
 20
330.9225438819927
 10
325.2970562748477
 20
331.0970562748477
 10
325.1225438819927
 20
331.2552250880706
 10
324.9333685592471
 20
331.3955270695261
 10
324.7313521683824
 20
331.516611034436
 10
324.5184402376762
 20
331.6173108780271
 10
324.2966832254107
 20
331.6966568057573
 10
324.0682167728387
 20
331.7538846729677
 10
323.835241136791
 20
331.7884433440133
 10
323.6
 20
331.8
 10
320
 20
331.8
 10
320
 20
322.8
 10
320
 20
321
 10
320
 20
321
  0
LWPOLYLINE
  5
62
100
AcDbEntity
  8
0
  6
CONTINUOUS
 62
  256
370
   -1
100
AcDbPolyline
 90
   72
 70
    0
 43
0
 10
327
 20
321.6
 10
327
 20
321.6
 10
327.3403190930592
 20
321.3973701285169
 10
327.6988606572148
 20
321.2290730795505
 10
328.0721717412052
 20
321.096729645683
 10
328.456657155219
 20
321.0016143665288
 10
328.848614094538
 20
320.9446432542214
 10
329.2442677995714
 20
320.9263649717159
 10
329.6398079088531
 20
320.9469555488648
 10
330
 20
321
 10
330
 20
321
 10
330.2520420195946
 20
321.0228531955269
 10
330.5006303831017
 20
321.0703007846744
 10
330.7433710486887
 20
321.1418858212216
 10
330.9779262910504
 20
321.2369189021343
 10
331.2020372149819
 20
321.3544848068927
 10
331.4135455097742
 20
321.4934513115661
 10
331.6104142349263
 20
321.6524800927476
 10
331.7907474369956
 20
321.8300396163404
 10
331.952808408666
 20
322.0244198870685
 10
332.0950364141888
 20
322.2337489166657
 10
332.2160617201211
 20
322.456010752146
 10
332.3147187866076
 20
322.6890648905332
 10
332.3900574921664
 20
322.9306668930741
 10
332.441352283879
 20
323.1784900004113
 10
332.4681091648603
 20
323.4301475405472
 10
332.4700704517198
 20
323.6832159138003
 10
332.447217256193
 20
323.9352579333948
 10
332.3997696670454
 20
324.1838462969019
 10
332.3281846304982
 20
324.426586962489
 10
332.2331515495856
 20
324.6611422048506
 10
332.1155856448271
 20
324.8852531287821
 10
331.9766191401537
 20
325.0967614235744
 10
331.8175903589723
 20
325.2936301487265
 10
331.6400308353794
 20
325.4739633507959
 10
331.4456505646513
 20
325.6360243224663
 10
331.2363215350542
 20
325.7782523279891
 10
331.2
 20
325.8
 10
328.2
 20
327.6
 10
328.2
 20
327.6
 10
328.0046222433361
 20
327.7293870327094
 10
327.8228674309146
 20
327.8773014004834
 10
327.6564859609364
 20
328.0423186071022
 10
327.5070801779108
 20
328.2228494466584
 10
327.3760889412018
 20
328.417155308479
 10
327.264773768026
 20
328.6233649208961
 10
327.1742066843523
 20
328.8394923726166
 10
327.1052599007052
 20
329.063456238133
 10
327.0585974123015
 20
329.2930996229895
 10
327.034668604413
 20
329.526210935854
 10
327.0337039245402
 20
329.760545187352
 10
327.0557126630778
 20
329.9938456105414
 10
327.1004828638424
 20
330.2238653948119
 10
327.1675833653269
 20
330.4483893238994
 10
327.256367953021
 20
330.6652551096296
 10
327.3659815828106
 20
330.8723742159349
 10
327.49536861552
 20
331.0677519725988
 10
327.6
 20
331.2
 10
327.6
 20
331.2
 10
327.6
 20
331.2
 10
328.0487266081554
 20
331.4137643542271
 10
328.5162450457489
 20
331.5825164757395
 10
328.9980528546547
 20
331.7046311893581
 10
329.4895099622902
 20
331.7789324636358
 10
329.9858833680512
 20
331.8047047366841
 10
330.4823927246947
 20
331.7816998074252
 10
330.9742563756967
 20
331.7101392259034
 10
331.4567374052181
 20
331.5907121596379
 10
331.9251892571935
 20
331.4245687565623
 10
332.3751004842067
 20
331.2133090684713
 10
332.4
 20
331.2
 10
332.4
 20
331.2
  0
LWPOLYLINE
  5
63
100
AcDbEntity
  8
0
  6
CONTINUOUS
 62
  256
370
   -1
100
AcDbPolyline
 90
    4
 70
    0
 43
0
 10
333
 20
331.8
 10
336.6
 20
321
 10
340.2
 20
331.8
 10
340.2
 20
331.8
  0
ELLIPSE
  5
64
100
AcDbEntity
  8
0
  6
CONTINUOUS
 62
  256
370
   -1
100
AcDbEllipse
 10
299.7611740860297
 20
326.8781717080312
 30
0
 11
48.51163500524081
 21
0.4020301243525637
 31
0
 40
0.2406302336117355
 41
0
 42
6.283185307179586
  0
ENDSEC
  0
SECTION
  2
OBJECTS
  0
DICTIONARY
  5
C
330
0
100
AcDbDictionary
281
    1
  3
ACAD_GROUP
350
D
  0
DICTIONARY
  5
D
330
C
100
AcDbDictionary
281
    1
  0
ENDSEC
  0
EOF
